# This file uses centimeters as units for non-parametric coordinates.

g default
v -1.500000 0.000000 0.000000
v 1.500000 0.000000 0.000000
v -1.500000 3.000000 0.000000
v 1.500000 3.000000 0.000000
v -1.500000 3.000000 -0.500000
v 1.500000 3.000000 -0.500000
v -1.500000 0.000000 -0.500000
v 1.500000 0.000000 -0.500000
v 1.500000 1.000000 -0.500000
v -1.500000 1.000000 -0.500000
v -1.500000 1.000000 0.000000
v 1.500000 1.000000 0.000000
v 1.500000 2.000000 -0.500000
v -1.500000 2.000000 -0.500000
v -1.500000 2.000000 0.000000
v 1.500000 2.000000 0.000000
v 0.500000 3.000000 0.000000
v 0.500000 3.000000 -0.500000
v 0.500000 2.000000 -0.500000
v 0.500000 1.000000 -0.500000
v 0.500000 0.000000 -0.500000
v 0.500000 0.000000 0.000000
v 0.500000 1.000000 0.000000
v 0.500000 2.000000 0.000000
v -0.500000 3.000000 0.000000
v -0.500000 3.000000 -0.500000
v -0.500000 2.000000 -0.500000
v -0.500000 1.000000 -0.500000
v -0.500000 0.000000 -0.500000
v -0.500000 0.000000 0.000000
v -0.500000 1.000000 0.000000
v -0.500000 2.000000 0.000000
vt 0.000000 0.666667
vt 0.333333 0.666667
vt 0.333333 1.000000
vt 0.000000 1.000000
vt 0.333333 1.000000
vt 0.000000 1.000000
vt 0.333333 0.666667
vt 0.000000 0.666667
vt 0.000000 0.000000
vt 0.333333 0.000000
vt 0.333333 0.000000
vt 0.000000 0.000000
vt 1.000000 0.666667
vt 1.000000 0.666667
vt 1.000000 1.000000
vt 1.000000 1.000000
vt 0.000000 0.333333
vt 0.333333 0.333333
vt 0.000000 0.333333
vt 0.333333 0.333333
vt 1.000000 0.000000
vt 1.000000 0.000000
vt 1.000000 0.333333
vt 1.000000 0.333333
vt 0.666667 1.000000
vt 0.666667 1.000000
vt 0.666667 0.666667
vt 0.666667 0.333333
vt 0.666667 0.000000
vt 0.666667 0.000000
vt 0.666667 0.333333
vt 0.666667 0.666667
vt 0.416667 0.666667
vt 0.583333 0.666667
vt 0.583333 1.000000
vt 0.416667 1.000000
vt 0.583333 0.666667
vt 0.416667 0.666667
vt 0.416667 1.000000
vt 0.583333 1.000000
vt 0.583333 0.000000
vt 0.416667 0.000000
vt 0.416667 0.333333
vt 0.583333 0.333333
vt 0.416667 0.000000
vt 0.583333 0.000000
vt 0.583333 0.333333
vt 0.416667 0.333333
vt 0.416667 0.333333
vt 0.416667 0.666667
vt 0.583333 0.666667
vt 0.583333 0.333333
vt 0.416667 0.666667
vt 0.416667 0.333333
vt 0.583333 0.333333
vt 0.583333 0.666667
vt 0.000000 0.416667
vt 0.333333 0.416667
vt 0.333333 0.583333
vt 0.000000 0.583333
vt 0.000000 0.583333
vt 0.333333 0.583333
vt 0.333333 0.416667
vt 0.000000 0.416667
vt 0.666667 0.416667
vt 1.000000 0.416667
vt 1.000000 0.583333
vt 0.666667 0.583333
vt 0.666667 0.416667
vt 0.666667 0.583333
vt 1.000000 0.583333
vt 1.000000 0.416667
vt 0.333333 0.416667
vt 0.666667 0.416667
vt 0.666667 0.583333
vt 0.333333 0.583333
vt 0.666667 0.416667
vt 0.333333 0.416667
vt 0.333333 0.583333
vt 0.666667 0.583333
vn 0.000000 0.000000 1.000000
vn 0.000000 0.000000 1.000000
vn 0.000000 0.000000 1.000000
vn 0.000000 0.000000 1.000000
vn 0.000000 1.000000 0.000000
vn 0.000000 1.000000 0.000000
vn 0.000000 1.000000 0.000000
vn 0.000000 1.000000 0.000000
vn 0.000000 0.000000 -1.000000
vn 0.000000 0.000000 -1.000000
vn 0.000000 0.000000 -1.000000
vn 0.000000 0.000000 -1.000000
vn 0.000000 -1.000000 0.000000
vn 0.000000 -1.000000 0.000000
vn 0.000000 -1.000000 0.000000
vn 0.000000 -1.000000 0.000000
vn 1.000000 0.000000 0.000000
vn 1.000000 0.000000 0.000000
vn 1.000000 0.000000 0.000000
vn 1.000000 0.000000 0.000000
vn -1.000000 0.000000 0.000000
vn -1.000000 0.000000 0.000000
vn -1.000000 0.000000 0.000000
vn -1.000000 0.000000 0.000000
vn 0.000000 0.000000 -1.000000
vn 0.000000 0.000000 -1.000000
vn 0.000000 0.000000 -1.000000
vn 0.000000 0.000000 -1.000000
vn -1.000000 0.000000 0.000000
vn -1.000000 0.000000 0.000000
vn -1.000000 0.000000 0.000000
vn -1.000000 0.000000 0.000000
vn 0.000000 0.000000 1.000000
vn 0.000000 0.000000 1.000000
vn 0.000000 0.000000 1.000000
vn 0.000000 0.000000 1.000000
vn 1.000000 0.000000 0.000000
vn 1.000000 0.000000 0.000000
vn 1.000000 0.000000 0.000000
vn 1.000000 0.000000 0.000000
vn 0.000000 1.000000 0.000000
vn 0.000000 1.000000 0.000000
vn 0.000000 1.000000 0.000000
vn 0.000000 1.000000 0.000000
vn 0.000000 0.000000 -1.000000
vn 0.000000 0.000000 -1.000000
vn 0.000000 0.000000 -1.000000
vn 0.000000 0.000000 -1.000000
vn 0.000000 0.000000 -1.000000
vn 0.000000 0.000000 -1.000000
vn 0.000000 0.000000 -1.000000
vn 0.000000 0.000000 -1.000000
vn 0.000000 -1.000000 0.000000
vn 0.000000 -1.000000 0.000000
vn 0.000000 -1.000000 0.000000
vn 0.000000 -1.000000 0.000000
vn 0.000000 0.000000 1.000000
vn 0.000000 0.000000 1.000000
vn 0.000000 0.000000 1.000000
vn 0.000000 0.000000 1.000000
vn 0.000000 0.000000 1.000000
vn 0.000000 0.000000 1.000000
vn 0.000000 0.000000 1.000000
vn 0.000000 0.000000 1.000000
vn -1.000000 0.000000 0.000000
vn -1.000000 0.000000 0.000000
vn -1.000000 0.000000 0.000000
vn -1.000000 0.000000 0.000000
vn 0.000000 1.000000 0.000000
vn 0.000000 1.000000 0.000000
vn 0.000000 1.000000 0.000000
vn 0.000000 1.000000 0.000000
vn 0.000000 -1.000000 0.000000
vn 0.000000 -1.000000 0.000000
vn 0.000000 -1.000000 0.000000
vn 0.000000 -1.000000 0.000000
vn 1.000000 0.000000 0.000000
vn 1.000000 0.000000 0.000000
vn 1.000000 0.000000 0.000000
vn 1.000000 0.000000 0.000000
s 1
g Wall_01_F_Window
f 15/1/1 32/2/2 25/3/3 3/4/4
s 2
f 3/57/5 25/58/6 26/59/7 5/60/8
s 3
f 5/6/9 26/5/10 27/7/11 14/8/12
s 4
f 7/61/13 29/62/14 30/63/15 1/64/16
s 5
f 16/33/17 13/34/18 6/35/19 4/36/20
s 6
f 14/37/21 15/38/22 3/39/23 5/40/24
s 3
f 10/17/25 28/18/26 29/10/27 7/9/28
s 6
f 7/41/29 1/42/30 11/43/31 10/44/32
s 1
f 1/12/33 30/11/34 31/20/35 11/19/36
s 5
f 2/45/37 8/46/38 9/47/39 12/48/40
s 3
f 14/8/12 27/7/11 28/18/26 10/17/25
s 6
f 10/44/32 11/43/31 15/38/22 14/37/21
s 1
f 11/19/36 31/20/35 32/2/2 15/1/1
s 5
f 12/48/40 9/47/39 13/34/18 16/33/17
s 2
f 17/65/41 4/66/42 6/67/43 18/68/44
s 3
f 19/27/45 18/26/46 6/15/47 13/14/48
f 20/28/49 19/27/45 13/14/48 9/23/50
f 21/29/51 20/28/49 9/23/50 8/22/52
s 4
f 22/69/53 21/70/54 8/71/55 2/72/56
s 1
f 23/31/57 22/30/58 2/21/59 12/24/60
f 24/32/61 23/31/57 12/24/60 16/13/62
f 17/25/63 24/32/61 16/13/62 4/16/64
s 2
f 25/58/6 17/65/41 18/68/44 26/59/7
s 3
f 27/7/11 26/5/10 18/26/46 19/27/45
f 29/10/27 28/18/26 20/28/49 21/29/51
s 4
f 30/63/15 29/62/14 21/70/54 22/69/53
s 1
f 31/20/35 30/11/34 22/30/58 23/31/57
f 25/3/3 32/2/2 24/32/61 17/25/63
s off
f 23/49/65 24/50/66 19/51/67 20/52/68
f 31/73/69 23/74/70 20/75/71 28/76/72
f 24/77/73 32/78/74 27/79/75 19/80/76
f 32/53/77 31/54/78 28/55/79 27/56/80
