# This file uses centimeters as units for non-parametric coordinates.

g default
v -1.500000 0.000000 0.000000
v 1.500000 0.000000 0.000000
v -1.500000 3.000000 0.000000
v 1.500000 3.000000 0.000000
v -1.500000 3.000000 -0.250000
v 1.500000 3.000000 -0.250000
v -1.500000 0.000000 -0.250000
v 1.500000 0.000000 -0.250000
v 1.500000 1.000000 -0.250000
v -1.500000 1.000000 -0.250000
v -1.500000 1.000000 0.000000
v 1.500000 1.000000 0.000000
v 1.500000 2.000000 -0.250000
v -1.500000 2.000000 -0.250000
v -1.500000 2.000000 0.000000
v 1.500000 2.000000 0.000000
v 0.500000 3.000000 0.000000
v 0.500000 3.000000 -0.250000
v 0.500000 2.000000 -0.250000
v 0.500000 1.000000 -0.250000
v 0.500000 0.000000 -0.250000
v 0.500000 0.000000 0.000000
v 0.500000 1.000000 0.000000
v 0.500000 2.000000 0.000000
v -0.500000 3.000000 0.000000
v -0.500000 3.000000 -0.250000
v -0.500000 2.000000 -0.250000
v -0.500000 1.000000 -0.250000
v -0.500000 0.000000 -0.250000
v -0.500000 0.000000 0.000000
v -0.500000 1.000000 0.000000
v -0.500000 2.000000 0.000000
vt 0.000000 0.666667
vt 0.333333 0.666667
vt 0.333333 1.000000
vt 0.000000 1.000000
vt 0.000000 0.458333
vt 0.333333 0.458333
vt 0.333333 0.541667
vt 0.000000 0.541667
vt 0.000000 1.000000
vt 0.333333 1.000000
vt 0.333333 0.666667
vt 0.000000 0.666667
vt 0.000000 0.541667
vt 0.333333 0.541667
vt 0.333333 0.458333
vt 0.000000 0.458333
vt 0.458333 0.666667
vt 0.541667 0.666667
vt 0.541667 1.000000
vt 0.458333 1.000000
vt 0.541667 0.666667
vt 0.458333 0.666667
vt 0.458333 1.000000
vt 0.541667 1.000000
vt 0.000000 0.333333
vt 0.333333 0.333333
vt 0.333333 0.000000
vt 0.000000 0.000000
vt 0.541667 0.000000
vt 0.458333 0.000000
vt 0.458333 0.333333
vt 0.541667 0.333333
vt 0.000000 0.000000
vt 0.333333 0.000000
vt 0.333333 0.333333
vt 0.000000 0.333333
vt 0.458333 0.000000
vt 0.541667 0.000000
vt 0.541667 0.333333
vt 0.458333 0.333333
vt 0.666667 0.458333
vt 1.000000 0.458333
vt 1.000000 0.541667
vt 0.666667 0.541667
vt 0.666667 0.666667
vt 0.666667 1.000000
vt 1.000000 1.000000
vt 1.000000 0.666667
vt 0.666667 0.333333
vt 1.000000 0.333333
vt 0.666667 0.000000
vt 1.000000 0.000000
vt 0.666667 0.458333
vt 0.666667 0.541667
vt 1.000000 0.541667
vt 1.000000 0.458333
vt 0.666667 0.333333
vt 0.666667 0.000000
vt 1.000000 0.000000
vt 1.000000 0.333333
vt 0.666667 0.666667
vt 1.000000 0.666667
vt 0.666667 1.000000
vt 1.000000 1.000000
vt 0.458333 0.333333
vt 0.458333 0.666667
vt 0.541667 0.666667
vt 0.541667 0.333333
vt 0.333333 0.458333
vt 0.666667 0.458333
vt 0.666667 0.541667
vt 0.333333 0.541667
vt 0.666667 0.458333
vt 0.333333 0.458333
vt 0.333333 0.541667
vt 0.666667 0.541667
vt 0.458333 0.666667
vt 0.458333 0.333333
vt 0.541667 0.333333
vt 0.541667 0.666667
vn 0.000000 0.000000 1.000000
vn 0.000000 0.000000 1.000000
vn 0.000000 0.000000 1.000000
vn 0.000000 0.000000 1.000000
vn 0.000000 1.000000 0.000000
vn 0.000000 1.000000 0.000000
vn 0.000000 1.000000 0.000000
vn 0.000000 1.000000 0.000000
vn 0.000000 0.000000 -1.000000
vn 0.000000 0.000000 -1.000000
vn 0.000000 0.000000 -1.000000
vn 0.000000 0.000000 -1.000000
vn 0.000000 -1.000000 0.000000
vn 0.000000 -1.000000 0.000000
vn 0.000000 -1.000000 0.000000
vn 0.000000 -1.000000 0.000000
vn 1.000000 0.000000 0.000000
vn 1.000000 0.000000 0.000000
vn 1.000000 0.000000 0.000000
vn 1.000000 0.000000 0.000000
vn -1.000000 0.000000 0.000000
vn -1.000000 0.000000 0.000000
vn -1.000000 0.000000 0.000000
vn -1.000000 0.000000 0.000000
vn 0.000000 0.000000 -1.000000
vn 0.000000 0.000000 -1.000000
vn 0.000000 0.000000 -1.000000
vn 0.000000 0.000000 -1.000000
vn -1.000000 0.000000 0.000000
vn -1.000000 0.000000 0.000000
vn -1.000000 0.000000 0.000000
vn -1.000000 0.000000 0.000000
vn 0.000000 0.000000 1.000000
vn 0.000000 0.000000 1.000000
vn 0.000000 0.000000 1.000000
vn 0.000000 0.000000 1.000000
vn 1.000000 0.000000 0.000000
vn 1.000000 0.000000 0.000000
vn 1.000000 0.000000 0.000000
vn 1.000000 0.000000 0.000000
vn 0.000000 0.000000 -1.000000
vn 0.000000 0.000000 -1.000000
vn 0.000000 0.000000 -1.000000
vn 0.000000 0.000000 -1.000000
vn -1.000000 0.000000 0.000000
vn -1.000000 0.000000 0.000000
vn -1.000000 0.000000 0.000000
vn -1.000000 0.000000 0.000000
vn 0.000000 0.000000 1.000000
vn 0.000000 0.000000 1.000000
vn 0.000000 0.000000 1.000000
vn 0.000000 0.000000 1.000000
vn 1.000000 0.000000 0.000000
vn 1.000000 0.000000 0.000000
vn 1.000000 0.000000 0.000000
vn 1.000000 0.000000 0.000000
vn 0.000000 1.000000 0.000000
vn 0.000000 1.000000 0.000000
vn 0.000000 1.000000 0.000000
vn 0.000000 1.000000 0.000000
vn 0.000000 0.000000 -1.000000
vn 0.000000 0.000000 -1.000000
vn 0.000000 0.000000 -1.000000
vn 0.000000 0.000000 -1.000000
vn 0.000000 0.000000 -1.000000
vn 0.000000 0.000000 -1.000000
vn 0.000000 0.000000 -1.000000
vn 0.000000 0.000000 -1.000000
vn 0.000000 0.000000 -1.000000
vn 0.000000 0.000000 -1.000000
vn 0.000000 0.000000 -1.000000
vn 0.000000 0.000000 -1.000000
vn 0.000000 -1.000000 0.000000
vn 0.000000 -1.000000 0.000000
vn 0.000000 -1.000000 0.000000
vn 0.000000 -1.000000 0.000000
vn 0.000000 0.000000 1.000000
vn 0.000000 0.000000 1.000000
vn 0.000000 0.000000 1.000000
vn 0.000000 0.000000 1.000000
vn 0.000000 0.000000 1.000000
vn 0.000000 0.000000 1.000000
vn 0.000000 0.000000 1.000000
vn 0.000000 0.000000 1.000000
vn 0.000000 0.000000 1.000000
vn 0.000000 0.000000 1.000000
vn 0.000000 0.000000 1.000000
vn 0.000000 0.000000 1.000000
vn 0.000000 1.000000 0.000000
vn 0.000000 1.000000 0.000000
vn 0.000000 1.000000 0.000000
vn 0.000000 1.000000 0.000000
vn 0.000000 0.000000 -1.000000
vn 0.000000 0.000000 -1.000000
vn 0.000000 0.000000 -1.000000
vn 0.000000 0.000000 -1.000000
vn 0.000000 0.000000 -1.000000
vn 0.000000 0.000000 -1.000000
vn 0.000000 0.000000 -1.000000
vn 0.000000 0.000000 -1.000000
vn 0.000000 -1.000000 0.000000
vn 0.000000 -1.000000 0.000000
vn 0.000000 -1.000000 0.000000
vn 0.000000 -1.000000 0.000000
vn 0.000000 0.000000 1.000000
vn 0.000000 0.000000 1.000000
vn 0.000000 0.000000 1.000000
vn 0.000000 0.000000 1.000000
vn 0.000000 0.000000 1.000000
vn 0.000000 0.000000 1.000000
vn 0.000000 0.000000 1.000000
vn 0.000000 0.000000 1.000000
vn -1.000000 0.000000 0.000000
vn -1.000000 0.000000 0.000000
vn -1.000000 0.000000 0.000000
vn -1.000000 0.000000 0.000000
vn 0.000000 1.000000 0.000000
vn 0.000000 1.000000 0.000000
vn 0.000000 1.000000 0.000000
vn 0.000000 1.000000 0.000000
vn 0.000000 -1.000000 0.000000
vn 0.000000 -1.000000 0.000000
vn 0.000000 -1.000000 0.000000
vn 0.000000 -1.000000 0.000000
vn 1.000000 0.000000 0.000000
vn 1.000000 0.000000 0.000000
vn 1.000000 0.000000 0.000000
vn 1.000000 0.000000 0.000000
s off
g Wall_01_F_Window:Wall_01_F_Window
f 15/1/1 32/2/2 25/3/3 3/4/4
f 3/5/5 25/6/6 26/7/7 5/8/8
f 5/9/9 26/10/10 27/11/11 14/12/12
f 7/13/13 29/14/14 30/15/15 1/16/16
f 16/17/17 13/18/18 6/19/19 4/20/20
f 14/21/21 15/22/22 3/23/23 5/24/24
f 10/25/25 28/26/26 29/27/27 7/28/28
f 7/29/29 1/30/30 11/31/31 10/32/32
f 1/33/33 30/34/34 31/35/35 11/36/36
f 2/37/37 8/38/38 9/39/39 12/40/40
f 14/12/41 27/11/42 28/26/43 10/25/44
f 10/32/45 11/31/46 15/22/47 14/21/48
f 11/36/49 31/35/50 32/2/51 15/1/52
f 12/40/53 9/39/54 13/18/55 16/17/56
f 17/41/57 4/42/58 6/43/59 18/44/60
f 19/45/61 18/46/62 6/47/63 13/48/64
f 20/49/65 19/45/66 13/48/67 9/50/68
f 21/51/69 20/49/70 9/50/71 8/52/72
f 22/53/73 21/54/74 8/55/75 2/56/76
f 23/57/77 22/58/78 2/59/79 12/60/80
f 24/61/81 23/57/82 12/60/83 16/62/84
f 17/63/85 24/61/86 16/62/87 4/64/88
f 25/6/89 17/41/90 18/44/91 26/7/92
f 27/11/93 26/10/94 18/46/95 19/45/96
f 29/27/97 28/26/98 20/49/99 21/51/100
f 30/15/101 29/14/102 21/54/103 22/53/104
f 31/35/105 30/34/106 22/58/107 23/57/108
f 25/3/109 32/2/110 24/61/111 17/63/112
f 23/65/113 24/66/114 19/67/115 20/68/116
f 31/69/117 23/70/118 20/71/119 28/72/120
f 24/73/121 32/74/122 27/75/123 19/76/124
f 32/77/125 31/78/126 28/79/127 27/80/128
