# This file uses centimeters as units for non-parametric coordinates.

g default
v -1.500000 0.000000 0.000000
v 1.500000 0.000000 0.000000
v -1.500000 3.000000 0.000000
v 1.500000 3.000000 0.000000
v -1.500000 3.000000 -0.500000
v 1.500000 3.000000 -0.500000
v -1.500000 0.000000 -0.500000
v 1.500000 0.000000 -0.500000
vt 0.000000 0.000000
vt 1.000000 0.000000
vt 1.000000 1.000000
vt 0.000000 1.000000
vt 1.000000 1.000000
vt 0.000000 1.000000
vt 1.000000 0.000000
vt 0.000000 0.000000
vt 0.000000 0.416667
vt 1.000000 0.416667
vt 1.000000 0.583333
vt 0.000000 0.583333
vt 0.000000 0.583333
vt 1.000000 0.583333
vt 1.000000 0.416667
vt 0.000000 0.416667
vt 0.416667 1.000000
vt 0.583333 1.000000
vt 0.583333 0.000000
vt 0.416667 0.000000
vt 0.416667 1.000000
vt 0.416667 0.000000
vt 0.583333 0.000000
vt 0.583333 1.000000
vn 0.000000 0.000000 1.000000
vn 0.000000 0.000000 1.000000
vn 0.000000 0.000000 1.000000
vn 0.000000 0.000000 1.000000
vn 0.000000 1.000000 0.000000
vn 0.000000 1.000000 0.000000
vn 0.000000 1.000000 0.000000
vn 0.000000 1.000000 0.000000
vn 0.000000 0.000000 -1.000000
vn 0.000000 0.000000 -1.000000
vn 0.000000 0.000000 -1.000000
vn 0.000000 0.000000 -1.000000
vn 0.000000 -1.000000 0.000000
vn 0.000000 -1.000000 0.000000
vn 0.000000 -1.000000 0.000000
vn 0.000000 -1.000000 0.000000
vn -1.000000 0.000000 0.000000
vn -1.000000 0.000000 0.000000
vn -1.000000 0.000000 0.000000
vn -1.000000 0.000000 0.000000
vn 1.000000 0.000000 0.000000
vn 1.000000 0.000000 0.000000
vn 1.000000 0.000000 0.000000
vn 1.000000 0.000000 0.000000
s off
g pCube1
f 1/1/1 2/2/2 4/3/3 3/4/4
f 3/9/5 4/10/6 6/11/7 5/12/8
f 5/6/9 6/5/10 8/7/11 7/8/12
f 7/13/13 8/14/14 2/15/15 1/16/16
f 3/17/17 5/18/18 7/19/19 1/20/20
f 4/21/21 2/22/22 8/23/23 6/24/24
