# This file uses centimeters as units for non-parametric coordinates.

g default
v -1.500000 0.000000 0.000000
v 1.500000 0.000000 0.000000
v -1.500000 3.000000 0.000000
v 1.500000 3.000000 0.000000
v -1.500000 3.000000 -0.400000
v 1.500000 3.000000 -0.400000
v -1.500000 0.000000 -0.400000
v 1.500000 0.000000 -0.400000
vt 0.000000 0.000000
vt 1.000000 0.000000
vt 1.000000 1.000000
vt 0.000000 1.000000
vt 0.000000 0.433333
vt 1.000000 0.433333
vt 1.000000 0.566667
vt 0.000000 0.566667
vt 0.000000 1.000000
vt 1.000000 1.000000
vt 1.000000 0.000000
vt 0.000000 0.000000
vt 0.000000 0.566667
vt 1.000000 0.566667
vt 1.000000 0.433333
vt 0.000000 0.433333
vn 0.000000 0.000000 1.000000
vn 0.000000 0.000000 1.000000
vn 0.000000 0.000000 1.000000
vn 0.000000 0.000000 1.000000
vn 0.000000 1.000000 0.000000
vn 0.000000 1.000000 0.000000
vn 0.000000 1.000000 0.000000
vn 0.000000 1.000000 0.000000
vn 0.000000 0.000000 -1.000000
vn 0.000000 0.000000 -1.000000
vn 0.000000 0.000000 -1.000000
vn 0.000000 0.000000 -1.000000
vn 0.000000 -1.000000 0.000000
vn 0.000000 -1.000000 0.000000
vn 0.000000 -1.000000 0.000000
vn 0.000000 -1.000000 0.000000
s off
g Wall_01_IH:Wall_01_IH
f 1/1/1 2/2/2 4/3/3 3/4/4
f 3/5/5 4/6/6 6/7/7 5/8/8
f 5/9/9 6/10/10 8/11/11 7/12/12
f 7/13/13 8/14/14 2/15/15 1/16/16
