# This file uses centimeters as units for non-parametric coordinates.

g default
v -1.000000 0.000000 0.000000
v 1.000000 0.000000 0.000000
v -1.000000 3.000000 0.000000
v 1.000000 3.000000 0.000000
v 1.000000 2.905996 0.000000
v -1.000000 2.905996 0.000000
v 1.000000 0.094004 0.000000
v -1.000000 0.094004 0.000000
v -1.000000 0.000000 0.052379
v 1.000000 0.000000 0.052379
v 1.000000 0.094004 0.052379
v -1.000000 0.094004 0.052379
v 1.000000 2.905996 0.052379
v -1.000000 2.905996 0.052379
v 1.000000 3.000000 0.052379
v -1.000000 3.000000 0.052379
vt 0.004544 0.020781
vt 0.621190 0.021761
vt 0.621143 0.050781
vt 0.004496 0.049804
vt 0.002928 0.949406
vt 0.619302 0.950324
vt 0.619214 0.979268
vt 0.002898 0.978364
vt 0.004463 0.065975
vt 0.621116 0.066952
vt 0.619351 0.934192
vt 0.002942 0.933267
vt 0.004573 0.004611
vt 0.621215 0.005591
vt 0.619190 0.995389
vt 0.002878 0.994494
vn 0.000000 0.000000 1.000000
vn 0.000000 0.000000 1.000000
vn 0.000000 0.000000 1.000000
vn 0.000000 0.000000 1.000000
vn 0.000000 0.000000 1.000000
vn 0.000000 0.000000 1.000000
vn 0.000000 0.000000 1.000000
vn 0.000000 0.000000 1.000000
vn 0.000000 0.000000 1.000000
vn 0.000000 0.000000 1.000000
vn 0.000000 0.000000 1.000000
vn 0.000000 0.000000 1.000000
vn 0.000000 -1.000000 0.000000
vn 0.000000 -1.000000 0.000000
vn 0.000000 -1.000000 0.000000
vn 0.000000 -1.000000 0.000000
vn 0.000000 1.000000 0.000000
vn 0.000000 1.000000 0.000000
vn 0.000000 1.000000 0.000000
vn 0.000000 1.000000 0.000000
vn 0.000000 -1.000000 0.000000
vn 0.000000 -1.000000 0.000000
vn 0.000000 -1.000000 0.000000
vn 0.000000 -1.000000 0.000000
vn 0.000000 1.000000 0.000000
vn 0.000000 1.000000 0.000000
vn 0.000000 1.000000 0.000000
vn 0.000000 1.000000 0.000000
s off
g pCube1
f 9/1/1 10/2/2 11/3/3 12/4/4
f 14/5/5 13/6/6 15/7/7 16/8/8
f 8/9/9 7/10/10 5/11/11 6/12/12
f 1/13/13 2/14/14 10/2/15 9/1/16
f 7/10/17 8/9/18 12/4/19 11/3/20
f 6/12/21 5/11/22 13/6/23 14/5/24
f 4/15/25 3/16/26 16/8/27 15/7/28
