# This file uses centimeters as units for non-parametric coordinates.

g default
v -1.000000 0.000000 0.000000
v 1.000000 0.000000 0.000000
v -1.000000 3.000000 0.000000
v 1.000000 3.000000 0.000000
v -1.000000 3.000000 -0.500000
v 1.000000 3.000000 -0.500000
v -1.000000 0.000000 -0.500000
v 1.000000 0.000000 -0.500000
vt 0.006131 0.039790
vt 0.509241 0.780319
vt 0.485337 0.758600
vt 0.492188 0.904355
vt 0.013299 0.783292
vt 0.499496 0.039977
vt 0.978702 0.758787
vt 0.988377 0.900403
vt 0.492503 0.784553
vt 0.978702 0.039977
vt 0.499496 0.758787
vt 0.509170 0.900121
vt 0.006131 0.758600
vt 0.012983 0.903094
vt 0.988447 0.780601
vt 0.485337 0.039791
vn 0.000000 0.000000 1.000000
vn 0.000000 0.000000 1.000000
vn 0.000000 0.000000 1.000000
vn 0.000000 0.000000 1.000000
vn 0.000000 1.000000 0.000000
vn 0.000000 1.000000 0.000000
vn 0.000000 1.000000 0.000000
vn 0.000000 1.000000 0.000000
vn 0.000000 0.000000 -1.000000
vn 0.000000 0.000000 -1.000000
vn 0.000000 0.000000 -1.000000
vn 0.000000 0.000000 -1.000000
vn 0.000000 -1.000000 0.000000
vn 0.000000 -1.000000 0.000000
vn 0.000000 -1.000000 0.000000
vn 0.000000 -1.000000 0.000000
s off
g pCube1
f 1/1/1 2/16/2 4/3/3 3/13/4
f 3/4/5 4/14/6 6/5/7 5/9/8
f 5/6/9 6/10/10 8/7/11 7/11/12
f 7/8/13 8/12/14 2/2/15 1/15/16
