# This file uses centimeters as units for non-parametric coordinates.

g default
v 1.500000 0.000000 0.000000
v 4.500000 0.000000 0.000000
v 1.500000 3.000000 0.000000
v 4.500000 3.000000 0.000000
v 1.500000 3.000000 -0.250000
v 4.500000 3.000000 -0.250000
v 1.500000 0.000000 -0.250000
v 4.500000 0.000000 -0.250000
v 4.500000 1.000000 -0.250000
v 1.500000 1.000000 -0.250000
v 1.500000 1.000000 0.000000
v 4.500000 1.000000 0.000000
v 4.500000 2.000000 -0.250000
v 1.500000 2.000000 -0.250000
v 1.500000 2.000000 0.000000
v 4.500000 2.000000 0.000000
v 3.500000 3.000000 0.000000
v 3.500000 3.000000 -0.250000
v 3.500000 2.000000 -0.250000
v 3.500000 1.000000 -0.250000
v 3.500000 0.000000 -0.250000
v 3.500000 0.000000 0.000000
v 3.500000 1.000000 0.000000
v 3.500000 2.000000 0.000000
v 2.500000 3.000000 0.000000
v 2.500000 3.000000 -0.250000
v 2.500000 2.000000 -0.250000
v 2.500000 1.000000 -0.250000
v 2.500000 0.000000 -0.250000
v 2.500000 0.000000 0.000000
v 2.500000 1.000000 0.000000
v 2.500000 2.000000 0.000000
vt 0.000000 0.666667
vt 0.333333 0.666667
vt 0.333333 1.000000
vt 0.000000 1.000000
vt 0.000000 0.458333
vt 0.333333 0.458333
vt 0.333333 0.541667
vt 0.000000 0.541667
vt 0.000000 1.000000
vt 0.333333 1.000000
vt 0.333333 0.666667
vt 0.000000 0.666667
vt 0.000000 0.541667
vt 0.333333 0.541667
vt 0.333333 0.458333
vt 0.000000 0.458333
vt 0.541667 0.666667
vt 0.458333 0.666667
vt 0.458333 1.000000
vt 0.541667 1.000000
vt 0.000000 0.333333
vt 0.333333 0.333333
vt 0.333333 0.000000
vt 0.000000 0.000000
vt 0.541667 0.000000
vt 0.458333 0.000000
vt 0.458333 0.333333
vt 0.541667 0.333333
vt 0.000000 0.000000
vt 0.333333 0.000000
vt 0.333333 0.333333
vt 0.000000 0.333333
vt 0.666667 0.458333
vt 1.000000 0.458333
vt 1.000000 0.541667
vt 0.666667 0.541667
vt 0.666667 0.666667
vt 0.666667 1.000000
vt 1.000000 1.000000
vt 1.000000 0.666667
vt 0.666667 0.333333
vt 1.000000 0.333333
vt 0.666667 0.000000
vt 1.000000 0.000000
vt 0.666667 0.458333
vt 0.666667 0.541667
vt 1.000000 0.541667
vt 1.000000 0.458333
vt 0.666667 0.333333
vt 0.666667 0.000000
vt 1.000000 0.000000
vt 1.000000 0.333333
vt 0.666667 0.666667
vt 1.000000 0.666667
vt 0.666667 1.000000
vt 1.000000 1.000000
vt 0.458333 0.333333
vt 0.458333 0.666667
vt 0.541667 0.666667
vt 0.541667 0.333333
vt 0.333333 0.458333
vt 0.666667 0.458333
vt 0.666667 0.541667
vt 0.333333 0.541667
vt 0.666667 0.458333
vt 0.333333 0.458333
vt 0.333333 0.541667
vt 0.666667 0.541667
vt 0.458333 0.666667
vt 0.458333 0.333333
vt 0.541667 0.333333
vt 0.541667 0.666667
vn 0.000000 0.000000 1.000000
vn 0.000000 0.000000 1.000000
vn 0.000000 0.000000 1.000000
vn 0.000000 0.000000 1.000000
vn 0.000000 1.000000 0.000000
vn 0.000000 1.000000 0.000000
vn 0.000000 1.000000 0.000000
vn 0.000000 1.000000 0.000000
vn 0.000000 0.000000 -1.000000
vn 0.000000 0.000000 -1.000000
vn 0.000000 0.000000 -1.000000
vn 0.000000 0.000000 -1.000000
vn 0.000000 -1.000000 0.000000
vn 0.000000 -1.000000 0.000000
vn 0.000000 -1.000000 0.000000
vn 0.000000 -1.000000 0.000000
vn -1.000000 0.000000 0.000000
vn -1.000000 0.000000 0.000000
vn -1.000000 0.000000 0.000000
vn -1.000000 0.000000 0.000000
vn 0.000000 0.000000 -1.000000
vn 0.000000 0.000000 -1.000000
vn 0.000000 0.000000 -1.000000
vn 0.000000 0.000000 -1.000000
vn -1.000000 0.000000 0.000000
vn -1.000000 0.000000 0.000000
vn -1.000000 0.000000 0.000000
vn -1.000000 0.000000 0.000000
vn 0.000000 0.000000 1.000000
vn 0.000000 0.000000 1.000000
vn 0.000000 0.000000 1.000000
vn 0.000000 0.000000 1.000000
vn 0.000000 0.000000 -1.000000
vn 0.000000 0.000000 -1.000000
vn 0.000000 0.000000 -1.000000
vn 0.000000 0.000000 -1.000000
vn -1.000000 0.000000 0.000000
vn -1.000000 0.000000 0.000000
vn -1.000000 0.000000 0.000000
vn -1.000000 0.000000 0.000000
vn 0.000000 0.000000 1.000000
vn 0.000000 0.000000 1.000000
vn 0.000000 0.000000 1.000000
vn 0.000000 0.000000 1.000000
vn 0.000000 1.000000 0.000000
vn 0.000000 1.000000 0.000000
vn 0.000000 1.000000 0.000000
vn 0.000000 1.000000 0.000000
vn 0.000000 0.000000 -1.000000
vn 0.000000 0.000000 -1.000000
vn 0.000000 0.000000 -1.000000
vn 0.000000 0.000000 -1.000000
vn 0.000000 0.000000 -1.000000
vn 0.000000 0.000000 -1.000000
vn 0.000000 0.000000 -1.000000
vn 0.000000 0.000000 -1.000000
vn 0.000000 0.000000 -1.000000
vn 0.000000 0.000000 -1.000000
vn 0.000000 0.000000 -1.000000
vn 0.000000 0.000000 -1.000000
vn 0.000000 -1.000000 0.000000
vn 0.000000 -1.000000 0.000000
vn 0.000000 -1.000000 0.000000
vn 0.000000 -1.000000 0.000000
vn 0.000000 0.000000 1.000000
vn 0.000000 0.000000 1.000000
vn 0.000000 0.000000 1.000000
vn 0.000000 0.000000 1.000000
vn 0.000000 0.000000 1.000000
vn 0.000000 0.000000 1.000000
vn 0.000000 0.000000 1.000000
vn 0.000000 0.000000 1.000000
vn 0.000000 0.000000 1.000000
vn 0.000000 0.000000 1.000000
vn 0.000000 0.000000 1.000000
vn 0.000000 0.000000 1.000000
vn 0.000000 1.000000 0.000000
vn 0.000000 1.000000 0.000000
vn 0.000000 1.000000 0.000000
vn 0.000000 1.000000 0.000000
vn 0.000000 0.000000 -1.000000
vn 0.000000 0.000000 -1.000000
vn 0.000000 0.000000 -1.000000
vn 0.000000 0.000000 -1.000000
vn 0.000000 0.000000 -1.000000
vn 0.000000 0.000000 -1.000000
vn 0.000000 0.000000 -1.000000
vn 0.000000 0.000000 -1.000000
vn 0.000000 -1.000000 0.000000
vn 0.000000 -1.000000 0.000000
vn 0.000000 -1.000000 0.000000
vn 0.000000 -1.000000 0.000000
vn 0.000000 0.000000 1.000000
vn 0.000000 0.000000 1.000000
vn 0.000000 0.000000 1.000000
vn 0.000000 0.000000 1.000000
vn 0.000000 0.000000 1.000000
vn 0.000000 0.000000 1.000000
vn 0.000000 0.000000 1.000000
vn 0.000000 0.000000 1.000000
vn -1.000000 0.000000 0.000000
vn -1.000000 0.000000 0.000000
vn -1.000000 0.000000 0.000000
vn -1.000000 0.000000 0.000000
vn 0.000000 1.000000 0.000000
vn 0.000000 1.000000 0.000000
vn 0.000000 1.000000 0.000000
vn 0.000000 1.000000 0.000000
vn 0.000000 -1.000000 0.000000
vn 0.000000 -1.000000 0.000000
vn 0.000000 -1.000000 0.000000
vn 0.000000 -1.000000 0.000000
vn 1.000000 0.000000 0.000000
vn 1.000000 0.000000 0.000000
vn 1.000000 0.000000 0.000000
vn 1.000000 0.000000 0.000000
s off
g Wall_01_HF_Window:Wall_01_HF_Window
f 15/1/1 32/2/2 25/3/3 3/4/4
f 3/5/5 25/6/6 26/7/7 5/8/8
f 5/9/9 26/10/10 27/11/11 14/12/12
f 7/13/13 29/14/14 30/15/15 1/16/16
f 14/17/17 15/18/18 3/19/19 5/20/20
f 10/21/21 28/22/22 29/23/23 7/24/24
f 7/25/25 1/26/26 11/27/27 10/28/28
f 1/29/29 30/30/30 31/31/31 11/32/32
f 14/12/33 27/11/34 28/22/35 10/21/36
f 10/28/37 11/27/38 15/18/39 14/17/40
f 11/32/41 31/31/42 32/2/43 15/1/44
f 17/33/45 4/34/46 6/35/47 18/36/48
f 19/37/49 18/38/50 6/39/51 13/40/52
f 20/41/53 19/37/54 13/40/55 9/42/56
f 21/43/57 20/41/58 9/42/59 8/44/60
f 22/45/61 21/46/62 8/47/63 2/48/64
f 23/49/65 22/50/66 2/51/67 12/52/68
f 24/53/69 23/49/70 12/52/71 16/54/72
f 17/55/73 24/53/74 16/54/75 4/56/76
f 25/6/77 17/33/78 18/36/79 26/7/80
f 27/11/81 26/10/82 18/38/83 19/37/84
f 29/23/85 28/22/86 20/41/87 21/43/88
f 30/15/89 29/14/90 21/46/91 22/45/92
f 31/31/93 30/30/94 22/50/95 23/49/96
f 25/3/97 32/2/98 24/53/99 17/55/100
f 23/57/101 24/58/102 19/59/103 20/60/104
f 31/61/105 23/62/106 20/63/107 28/64/108
f 24/65/109 32/66/110 27/67/111 19/68/112
f 32/69/113 31/70/114 28/71/115 27/72/116
