# This file uses centimeters as units for non-parametric coordinates.

g default
v -1.500000 0.000000 0.000000
v 1.500000 0.000000 0.000000
v -1.500000 3.000000 0.000000
v 1.500000 3.000000 0.000000
v -1.500000 3.000000 -0.250000
v 1.500000 3.000000 -0.250000
v -1.500000 0.000000 -0.250000
v 1.500000 0.000000 -0.250000
v -0.500000 3.000000 -0.250000
v -0.500000 3.000000 0.000000
v -0.500000 0.000000 0.000000
v -0.500000 0.000000 -0.250000
v 0.500000 3.000000 -0.250000
v 0.500000 3.000000 0.000000
v 0.500000 0.000000 0.000000
v 0.500000 0.000000 -0.250000
v -1.500000 1.000000 0.000000
v -0.500000 1.000000 0.000000
v 0.500000 1.000000 0.000000
v 1.500000 1.000000 0.000000
v -1.500000 2.000000 0.000000
v -0.500000 2.000000 0.000000
v 0.500000 2.000000 0.000000
v 1.500000 2.000000 0.000000
v -1.500000 2.000000 -0.250000
v -0.500000 2.000000 -0.250000
v 0.500000 2.000000 -0.250000
v 1.500000 2.000000 -0.250000
v -1.500000 1.000000 -0.250000
v -0.500000 1.000000 -0.250000
v 0.500000 1.000000 -0.250000
v 1.500000 1.000000 -0.250000
v -0.500000 1.000000 -0.250000
v 0.500000 1.000000 -0.250000
v -0.500000 2.000000 -0.250000
v 0.500000 2.000000 -0.250000
vt 0.666667 0.666667
vt 1.000000 0.666667
vt 1.000000 1.000000
vt 0.666667 1.000000
vt 0.666667 0.458333
vt 1.000000 0.458333
vt 1.000000 0.541667
vt 0.666667 0.541667
vt 0.666667 0.000000
vt 0.666667 0.333333
vt 1.000000 0.333333
vt 1.000000 0.000000
vt 0.666667 0.541667
vt 1.000000 0.541667
vt 1.000000 0.458333
vt 0.666667 0.458333
vt 0.000000 0.458333
vt 0.333333 0.458333
vt 0.333333 0.541667
vt 0.000000 0.541667
vt 0.000000 0.666667
vt 0.333333 0.666667
vt 0.333333 1.000000
vt 0.000000 1.000000
vt 0.000000 0.541667
vt 0.333333 0.541667
vt 0.333333 0.458333
vt 0.000000 0.458333
vt 0.000000 0.333333
vt 0.333333 0.333333
vt 0.333333 0.000000
vt 0.000000 0.000000
vt 0.000000 0.000000
vt 0.333333 0.000000
vt 0.333333 0.333333
vt 0.000000 0.333333
vt 0.666667 0.000000
vt 0.666667 0.333333
vt 1.000000 0.000000
vt 1.000000 0.333333
vt 0.000000 1.000000
vt 0.333333 1.000000
vt 0.333333 0.666667
vt 0.000000 0.666667
vt 0.666667 0.666667
vt 0.666667 1.000000
vt 1.000000 0.666667
vt 1.000000 1.000000
vt 0.333333 0.458333
vt 0.666667 0.458333
vt 0.666667 0.541667
vt 0.333333 0.541667
vt 0.375000 1.000000
vt 0.375000 0.000000
vt 0.625000 0.000000
vt 0.625000 1.000000
vt 0.375000 0.000000
vt 0.375000 1.000000
vt 0.625000 1.000000
vt 0.625000 0.000000
vt 0.666667 0.458333
vt 0.333333 0.458333
vt 0.333333 0.541667
vt 0.666667 0.541667
vn 0.000000 0.000000 1.000000
vn 0.000000 0.000000 1.000000
vn 0.000000 0.000000 1.000000
vn 0.000000 0.000000 1.000000
vn 0.000000 1.000000 0.000000
vn 0.000000 1.000000 0.000000
vn 0.000000 1.000000 0.000000
vn 0.000000 1.000000 0.000000
vn 0.000000 0.000000 -1.000000
vn 0.000000 0.000000 -1.000000
vn 0.000000 0.000000 -1.000000
vn 0.000000 0.000000 -1.000000
vn 0.000000 -1.000000 0.000000
vn 0.000000 -1.000000 0.000000
vn 0.000000 -1.000000 0.000000
vn 0.000000 -1.000000 0.000000
vn 0.000000 1.000000 0.000000
vn 0.000000 1.000000 0.000000
vn 0.000000 1.000000 0.000000
vn 0.000000 1.000000 0.000000
vn 0.000000 0.000000 1.000000
vn 0.000000 0.000000 1.000000
vn 0.000000 0.000000 1.000000
vn 0.000000 0.000000 1.000000
vn 0.000000 -1.000000 0.000000
vn 0.000000 -1.000000 0.000000
vn 0.000000 -1.000000 0.000000
vn 0.000000 -1.000000 0.000000
vn 0.000000 0.000000 -1.000000
vn 0.000000 0.000000 -1.000000
vn 0.000000 0.000000 -1.000000
vn 0.000000 0.000000 -1.000000
vn 0.000000 1.000000 0.000000
vn 0.000000 1.000000 0.000000
vn 0.000000 1.000000 0.000000
vn 0.000000 1.000000 0.000000
vn 0.000000 0.000000 1.000000
vn 0.000000 0.000000 1.000000
vn 0.000000 0.000000 1.000000
vn 0.000000 0.000000 1.000000
vn 0.000000 -1.000000 0.000000
vn 0.000000 -1.000000 0.000000
vn 0.000000 -1.000000 0.000000
vn 0.000000 -1.000000 0.000000
vn 0.000000 0.000000 -1.000000
vn 0.000000 0.000000 -1.000000
vn 0.000000 0.000000 -1.000000
vn 0.000000 0.000000 -1.000000
vn 0.000000 0.000000 1.000000
vn 0.000000 0.000000 1.000000
vn 0.000000 0.000000 1.000000
vn 0.000000 0.000000 1.000000
vn 0.000000 0.000000 1.000000
vn 0.000000 0.000000 1.000000
vn 0.000000 0.000000 1.000000
vn 0.000000 0.000000 1.000000
vn 0.000000 0.000000 1.000000
vn 0.000000 0.000000 1.000000
vn 0.000000 0.000000 1.000000
vn 0.000000 0.000000 1.000000
vn 0.000000 0.000000 1.000000
vn 0.000000 0.000000 1.000000
vn 0.000000 0.000000 1.000000
vn 0.000000 0.000000 1.000000
vn 0.000000 0.000000 1.000000
vn 0.000000 0.000000 1.000000
vn 0.000000 0.000000 1.000000
vn 0.000000 0.000000 1.000000
vn 0.000000 0.000000 -1.000000
vn 0.000000 0.000000 -1.000000
vn 0.000000 0.000000 -1.000000
vn 0.000000 0.000000 -1.000000
vn 0.000000 0.000000 -1.000000
vn 0.000000 0.000000 -1.000000
vn 0.000000 0.000000 -1.000000
vn 0.000000 0.000000 -1.000000
vn 0.000000 0.000000 -1.000000
vn 0.000000 0.000000 -1.000000
vn 0.000000 0.000000 -1.000000
vn 0.000000 0.000000 -1.000000
vn 0.000000 0.000000 -1.000000
vn 0.000000 0.000000 -1.000000
vn 0.000000 0.000000 -1.000000
vn 0.000000 0.000000 -1.000000
vn 0.000000 0.000000 -1.000000
vn 0.000000 0.000000 -1.000000
vn 0.000000 0.000000 -1.000000
vn 0.000000 0.000000 -1.000000
vn 0.000000 1.000000 0.000000
vn 0.000000 1.000000 0.000000
vn 0.000000 1.000000 0.000000
vn 0.000000 1.000000 0.000000
vn 1.000000 0.000000 0.000000
vn 1.000000 0.000000 0.000000
vn 1.000000 0.000000 0.000000
vn 1.000000 0.000000 0.000000
vn -1.000000 0.000000 0.000000
vn -1.000000 0.000000 0.000000
vn -1.000000 0.000000 0.000000
vn -1.000000 0.000000 0.000000
vn 0.000000 -1.000000 0.000000
vn 0.000000 -1.000000 0.000000
vn 0.000000 -1.000000 0.000000
vn 0.000000 -1.000000 0.000000
s off
g Wall_01_IH_Window:Wall_01_IH_Window
f 23/1/1 24/2/2 4/3/3 14/4/4
f 14/5/5 4/6/6 6/7/7 13/8/8
f 16/9/9 31/10/10 32/11/11 8/12/12
f 16/13/13 8/14/14 2/15/15 15/16/16
f 3/17/17 10/18/18 9/19/19 5/20/20
f 21/21/21 22/22/22 10/23/23 3/24/24
f 7/25/25 12/26/26 11/27/27 1/28/28
f 29/29/29 30/30/30 12/31/31 7/32/32
f 10/18/33 14/5/34 13/8/35 9/19/36
f 22/22/37 23/1/38 14/4/39 10/23/40
f 12/26/41 16/13/42 15/16/43 11/27/44
f 12/31/45 30/30/46 31/10/47 16/9/48
f 1/33/49 11/34/50 18/35/51 17/36/52
f 11/34/53 15/37/54 19/38/55 18/35/56
f 15/37/57 2/39/58 20/40/59 19/38/60
f 17/36/61 18/35/62 22/22/63 21/21/64
f 19/38/65 20/40/66 24/2/67 23/1/68
f 5/41/69 9/42/70 26/43/71 25/44/72
f 27/45/73 26/43/74 9/42/75 13/46/76
f 28/47/77 27/45/78 13/46/79 6/48/80
f 25/44/81 26/43/82 30/30/83 29/29/84
f 32/11/85 31/10/86 27/45/87 28/47/88
f 18/49/89 19/50/90 34/51/91 33/52/92
f 22/53/93 18/54/94 33/55/95 35/56/96
f 19/57/97 23/58/98 36/59/99 34/60/100
f 23/61/101 22/62/102 35/63/103 36/64/104
